<svg xmlns="http://www.w3.org/2000/svg" viewBox="0 0 1212.89 835.01"><path d="M160.97 567.85a32597 32597 0 0 1-23.63 33.32c-6.65 9.35-13.31 18.69-19.95 28.04-7.87 11.07-15.72 22.15-23.58 33.22-3.81 5.37-7.64 10.72-11.56 16.22-1.13-1.55-2.24-3.02-3.3-4.51-9.71-13.7-19.4-27.41-29.12-41.1-9.4-13.25-18.81-26.49-28.23-39.73-6.2-8.71-12.4-17.41-18.63-26.1-.43-.6-1.07-1.07-1.69-1.5-.88-.62-1.26-1.35-1.26-2.48.04-18.53.03-37.06.03-55.59 0-12.37.04-24.74-.04-37.11-.01-1.88.82-2.84 2.33-3.51 4.53-2.03 9.07-4.04 13.6-6.07 14.86-6.66 29.72-13.33 44.58-19.99 6.63-2.97 13.25-5.96 19.88-8.93 1.22-.55 2.42-.48 3.66.08 9.25 4.17 18.52 8.33 27.78 12.48 11.53 5.17 23.06 10.33 34.59 15.49 5.19 2.32 10.37 4.65 15.56 6.95 1.79.8 2.62 2.03 2.61 4.1-.06 15.86-.06 31.71-.03 47.57.03 14.4.11 28.79.2 43.19.01 1.73-.63 3-2 4.03-.67.5-1.17 1.22-1.79 1.93m-57.37-120.83c-6.85-3.1-13.69-6.21-20.55-9.26-.48-.22-1.25-.12-1.76.1-4.91 2.16-9.79 4.38-14.68 6.57-17.48 7.84-34.97 15.66-52.45 23.5-1.5.67-2.98 1.4-4.63 2.17.33.22.46.34.61.4 9.63 4.29 19.26 8.58 28.89 12.88 14.1 6.3 28.19 12.63 42.31 18.9.52.23 1.31.24 1.83.02 9.06-4 18.11-8.06 27.15-12.1 11.6-5.19 23.2-10.37 34.79-15.56 3.23-1.45 6.44-2.92 9.97-4.52-17.28-7.77-34.28-15.41-51.47-23.1m-5.68 54.91c-3.91 1.74-7.82 3.46-11.7 5.25-.48.22-1.1.82-1.1 1.25-.05 5.57.02 11.14 0 16.71 0 .93.29 1.34 1.12 1.69 7.45 3.18 14.89 6.39 22.32 9.61 15.47 6.71 30.94 13.43 46.41 20.13 1.29.56 2.6 1.05 3.92 1.58v-83.56c-.52.26-.87.44-1.24.61-11.34 5.07-22.69 10.14-34.04 15.22-8.5 3.81-17 7.62-25.69 11.52m-92.47-6.53v62.74c.51-.15.86-.22 1.18-.35 9.36-4.04 18.72-8.08 28.08-12.13 9.26-4.01 18.51-8.02 27.77-12.03 5.2-2.25 10.41-4.49 15.62-6.74.76-.33 1.38-.64 1.37-1.72-.06-5.44-.04-10.87-.01-16.31 0-.84-.29-1.31-1.07-1.65-7.8-3.48-15.59-7-23.38-10.49-13.81-6.18-27.62-12.35-41.44-18.53-2.65-1.19-5.31-2.37-8.12-3.63zm140.45 71.9c2.96-1.32 5.93-2.64 9.21-4.11-23.14-9.98-45.92-19.8-68.74-29.64v60.45c19.91-8.93 39.62-17.78 59.53-26.7M41.28 549.39c-10.55 4.55-21.09 9.09-31.97 13.79 23.18 10.38 45.91 20.56 68.77 30.79V533.5c-12.29 5.32-24.45 10.57-36.8 15.89m82.86 59.76c8.87-12.5 17.73-25 26.6-37.5-.43-.12-.65-.07-.85.02l-18.15 8.13c-14.78 6.61-29.56 13.24-44.36 19.8-.93.41-1.13.88-1.13 1.82 0 20.02-.03 40.05-.05 60.07 0 .19.14.37.26.65 12.57-17.68 25.06-35.26 37.69-52.98m-62.59-16.47c-15.92-7.1-31.84-14.2-47.76-21.29-.07.07-.14.15-.21.22 21.43 30.16 42.87 60.32 64.42 90.64.14-.37.16-.41.16-.45.01-20.24.02-40.49-.01-60.73 0-.45-.45-1.12-.86-1.31-5.17-2.36-10.37-4.65-15.74-7.07Zm626.49-83.49a32597 32597 0 0 1-23.63 33.32c-6.65 9.35-13.31 18.69-19.95 28.04-7.87 11.07-15.72 22.15-23.58 33.22-3.81 5.37-7.64 10.72-11.56 16.22-1.13-1.55-2.24-3.02-3.3-4.51-9.71-13.7-19.4-27.41-29.12-41.1-9.4-13.25-18.81-26.49-28.23-39.73-6.2-8.71-12.4-17.41-18.63-26.1-.43-.6-1.07-1.07-1.69-1.5-.88-.62-1.26-1.35-1.26-2.48.04-18.53.03-37.06.03-55.59 0-12.37.04-24.74-.04-37.11-.01-1.88.82-2.84 2.33-3.51 4.53-2.03 9.07-4.04 13.6-6.07 14.86-6.66 29.72-13.33 44.58-19.99 6.63-2.97 13.25-5.96 19.88-8.93 1.22-.55 2.42-.48 3.66.08 9.25 4.17 18.52 8.33 27.78 12.48 11.53 5.17 23.06 10.33 34.59 15.49 5.19 2.32 10.37 4.65 15.56 6.95 1.79.8 2.62 2.03 2.61 4.1-.06 15.86-.06 31.71-.03 47.57.03 14.4.11 28.79.2 43.19.01 1.73-.63 3-2 4.03-.67.5-1.17 1.22-1.79 1.93m-57.37-120.83c-6.85-3.1-13.69-6.21-20.55-9.26-.48-.22-1.25-.12-1.76.1-4.91 2.16-9.79 4.38-14.68 6.57-17.48 7.84-34.97 15.66-52.45 23.5-1.5.67-2.98 1.4-4.63 2.17.33.22.46.34.61.4 9.63 4.29 19.26 8.58 28.89 12.88 14.1 6.3 28.19 12.63 42.31 18.9.52.23 1.31.24 1.83.02 9.06-4 18.11-8.06 27.15-12.1 11.6-5.19 23.2-10.37 34.79-15.56 3.23-1.45 6.44-2.92 9.97-4.52-17.28-7.77-34.28-15.41-51.47-23.1m-5.68 54.91c-3.91 1.74-7.82 3.46-11.7 5.25-.48.22-1.1.82-1.1 1.25-.05 5.57.02 11.14 0 16.71 0 .93.29 1.34 1.12 1.69 7.45 3.18 14.89 6.39 22.32 9.61 15.47 6.71 30.94 13.43 46.41 20.13 1.29.56 2.6 1.05 3.92 1.58v-83.56c-.52.26-.87.44-1.24.61-11.34 5.07-22.69 10.14-34.04 15.22-8.5 3.81-17 7.62-25.69 11.52m-92.47-6.53v62.74c.51-.15.86-.22 1.18-.35 9.36-4.04 18.72-8.08 28.08-12.13 9.26-4.01 18.51-8.02 27.77-12.03 5.2-2.25 10.41-4.49 15.62-6.74.76-.33 1.38-.64 1.37-1.72-.06-5.44-.04-10.87-.01-16.31 0-.84-.29-1.31-1.07-1.65-7.8-3.48-15.59-7-23.38-10.49-13.81-6.18-27.62-12.35-41.44-18.53-2.65-1.19-5.31-2.37-8.12-3.63zM673 508.66c2.96-1.32 5.93-2.64 9.21-4.11-23.14-9.98-45.92-19.8-68.74-29.64v60.45c19.91-8.93 39.62-17.78 59.53-26.7m-104.64-17.92c-10.55 4.55-21.09 9.09-31.97 13.79 23.18 10.38 45.91 20.56 68.77 30.79v-60.47c-12.29 5.32-24.45 10.57-36.8 15.89m82.86 59.76c8.87-12.5 17.73-25 26.6-37.5-.43-.12-.65-.07-.85.02l-18.15 8.13c-14.78 6.61-29.56 13.24-44.36 19.8-.93.41-1.13.88-1.13 1.82 0 20.02-.03 40.05-.05 60.07 0 .19.14.37.26.65 12.57-17.68 25.06-35.26 37.69-52.98m-62.59-16.47c-15.92-7.1-31.84-14.2-47.76-21.29-.07.07-.14.15-.21.22 21.43 30.16 42.87 60.32 64.42 90.64.14-.37.16-.41.16-.45.01-20.24.02-40.49-.01-60.73 0-.45-.45-1.12-.86-1.31-5.17-2.36-10.37-4.65-15.74-7.07Zm-134.3-345.16a32597 32597 0 0 1-23.63 33.32c-6.65 9.35-13.31 18.69-19.95 28.04-7.87 11.07-15.72 22.15-23.58 33.22-3.81 5.37-7.64 10.72-11.56 16.22-1.13-1.55-2.24-3.02-3.3-4.51-9.71-13.7-19.4-27.41-29.12-41.1-9.4-13.25-18.81-26.49-28.23-39.73-6.2-8.71-12.4-17.41-18.63-26.1-.43-.6-1.07-1.07-1.69-1.5-.88-.62-1.26-1.35-1.26-2.48.04-18.53.03-37.06.03-55.59 0-12.37.04-24.74-.04-37.11-.01-1.88.82-2.84 2.33-3.51 4.53-2.03 9.07-4.04 13.6-6.07 14.86-6.66 29.72-13.33 44.58-19.99 6.63-2.97 13.25-5.96 19.88-8.93 1.22-.55 2.42-.48 3.66.08 9.25 4.17 18.52 8.33 27.78 12.48 11.53 5.17 23.06 10.33 34.59 15.49 5.19 2.32 10.37 4.65 15.56 6.95 1.79.8 2.62 2.03 2.61 4.1-.06 15.86-.06 31.71-.03 47.57.03 14.4.11 28.79.2 43.19.01 1.73-.63 3-2 4.03-.67.5-1.17 1.22-1.79 1.93M396.98 68.05c-6.85-3.1-13.69-6.21-20.55-9.26-.48-.22-1.25-.12-1.76.1-4.91 2.16-9.79 4.38-14.68 6.57-17.48 7.84-34.97 15.66-52.45 23.5-1.5.67-2.98 1.4-4.63 2.17.33.22.46.34.61.4 9.63 4.29 19.26 8.58 28.89 12.88 14.1 6.3 28.19 12.63 42.31 18.9.52.23 1.31.24 1.83.02 9.06-4 18.11-8.06 27.15-12.1 11.6-5.19 23.2-10.37 34.79-15.56 3.23-1.45 6.44-2.92 9.97-4.52-17.28-7.77-34.28-15.41-51.47-23.1m-5.68 54.91c-3.91 1.74-7.82 3.46-11.7 5.25-.48.22-1.1.82-1.1 1.25-.05 5.57.02 11.14 0 16.71 0 .93.29 1.34 1.12 1.69 7.45 3.18 14.89 6.39 22.32 9.61 15.47 6.71 30.94 13.43 46.41 20.13 1.29.56 2.6 1.05 3.92 1.58V95.62c-.52.26-.87.44-1.24.61-11.34 5.07-22.69 10.14-34.04 15.22-8.5 3.81-17 7.62-25.69 11.52m-92.47-6.53v62.74c.51-.15.86-.22 1.18-.35 9.36-4.04 18.72-8.08 28.08-12.13 9.26-4.01 18.51-8.02 27.77-12.03 5.2-2.25 10.41-4.49 15.62-6.74.76-.33 1.38-.64 1.37-1.72-.06-5.44-.04-10.87-.01-16.31 0-.84-.29-1.31-1.07-1.65-7.8-3.48-15.59-7-23.38-10.49-13.81-6.18-27.62-12.35-41.44-18.53-2.65-1.19-5.31-2.37-8.12-3.63zm140.45 71.9c2.96-1.32 5.93-2.64 9.21-4.11-23.14-9.98-45.92-19.8-68.74-29.64v60.45c19.91-8.93 39.62-17.78 59.53-26.7m-104.64-17.92c-10.55 4.55-21.09 9.09-31.97 13.79 23.18 10.38 45.91 20.56 68.77 30.79v-60.47c-12.29 5.32-24.45 10.57-36.8 15.89m82.86 59.76c8.87-12.5 17.73-25 26.6-37.5-.43-.12-.65-.07-.85.02l-18.15 8.13c-14.78 6.61-29.56 13.24-44.36 19.8-.93.41-1.13.88-1.13 1.82 0 20.02-.03 40.05-.05 60.07 0 .19.14.37.26.65 12.57-17.68 25.06-35.26 37.69-52.98m-62.59-16.47c-15.92-7.1-31.84-14.2-47.76-21.29-.07.07-.14.15-.21.22 21.43 30.16 42.87 60.32 64.42 90.64.14-.37.16-.41.16-.45.01-20.24.02-40.49-.01-60.73 0-.45-.45-1.12-.86-1.31-5.17-2.36-10.37-4.65-15.74-7.07Zm638.42 510.49a32597 32597 0 0 1-23.63 33.32c-6.65 9.35-13.31 18.69-19.95 28.04-7.87 11.07-15.72 22.15-23.58 33.22-3.81 5.37-7.64 10.72-11.56 16.22-1.13-1.55-2.24-3.02-3.3-4.51-9.71-13.7-19.4-27.41-29.12-41.1-9.4-13.25-18.81-26.49-28.23-39.73-6.2-8.71-12.4-17.41-18.63-26.1-.43-.6-1.07-1.07-1.69-1.5-.88-.62-1.26-1.35-1.26-2.48.04-18.53.03-37.06.03-55.59 0-12.37.04-24.74-.04-37.11-.01-1.88.82-2.84 2.33-3.51 4.53-2.03 9.07-4.04 13.6-6.07 14.86-6.66 29.72-13.33 44.58-19.99 6.63-2.97 13.25-5.96 19.88-8.93 1.22-.55 2.42-.48 3.66.08 9.25 4.17 18.52 8.33 27.78 12.48 11.53 5.17 23.06 10.33 34.59 15.49 5.19 2.32 10.37 4.65 15.56 6.95 1.79.8 2.62 2.03 2.61 4.1-.06 15.86-.06 31.71-.03 47.57.03 14.4.11 28.79.2 43.19.01 1.73-.63 3-2 4.03-.67.5-1.17 1.22-1.79 1.93m-57.37-120.83c-6.85-3.1-13.69-6.21-20.55-9.26-.48-.22-1.25-.12-1.76.1-4.91 2.16-9.79 4.38-14.68 6.57-17.48 7.84-34.97 15.66-52.45 23.5-1.5.67-2.98 1.4-4.63 2.17.33.22.46.34.61.4 9.63 4.29 19.26 8.58 28.89 12.88 14.1 6.3 28.19 12.63 42.31 18.9.52.23 1.31.24 1.83.02 9.06-4 18.11-8.06 27.15-12.1 11.6-5.19 23.2-10.37 34.79-15.56 3.23-1.45 6.44-2.92 9.97-4.52-17.28-7.77-34.28-15.41-51.47-23.1m-5.68 54.91c-3.91 1.74-7.82 3.46-11.7 5.25-.48.22-1.1.82-1.1 1.25-.05 5.57.02 11.14 0 16.71 0 .93.29 1.34 1.12 1.69 7.45 3.18 14.89 6.39 22.32 9.61 15.47 6.71 30.94 13.43 46.41 20.13 1.29.56 2.6 1.05 3.92 1.58v-83.56c-.52.26-.87.44-1.24.61-11.34 5.07-22.69 10.14-34.04 15.22-8.5 3.81-17 7.62-25.69 11.52m-92.47-6.53v62.74c.51-.15.86-.22 1.18-.35 9.36-4.04 18.72-8.08 28.08-12.13 9.26-4.01 18.51-8.02 27.77-12.03 5.2-2.25 10.41-4.49 15.62-6.74.76-.33 1.38-.64 1.37-1.72-.06-5.44-.04-10.87-.01-16.31 0-.84-.29-1.31-1.07-1.65-7.8-3.48-15.59-7-23.38-10.49-13.81-6.18-27.62-12.35-41.44-18.53-2.65-1.19-5.31-2.37-8.12-3.63zm140.45 71.9c2.96-1.32 5.93-2.64 9.21-4.11-23.14-9.98-45.92-19.8-68.74-29.64v60.45c19.91-8.93 39.62-17.78 59.53-26.7m-104.64-17.92c-10.55 4.55-21.09 9.09-31.97 13.79 23.18 10.38 45.91 20.56 68.77 30.79v-60.47c-12.29 5.32-24.45 10.57-36.8 15.89m82.86 59.76c8.87-12.5 17.73-25 26.6-37.5-.43-.12-.65-.07-.85.02l-18.15 8.13c-14.78 6.61-29.56 13.24-44.36 19.8-.93.41-1.13.88-1.13 1.82 0 20.02-.03 40.05-.05 60.07 0 .19.14.37.26.65 12.57-17.68 25.06-35.26 37.69-52.98m-62.59-16.47c-15.92-7.1-31.84-14.2-47.76-21.29-.07.07-.14.15-.21.22 21.43 30.16 42.87 60.32 64.42 90.64.14-.37.16-.41.16-.45.01-20.24.02-40.49-.01-60.73 0-.45-.45-1.12-.86-1.31-5.17-2.36-10.37-4.65-15.74-7.07Zm315.16-467.02a32597 32597 0 0 1-23.63 33.32c-6.65 9.35-13.31 18.69-19.95 28.04-7.87 11.07-15.72 22.15-23.58 33.22-3.81 5.37-7.64 10.72-11.56 16.22-1.13-1.55-2.24-3.02-3.3-4.51-9.71-13.7-19.4-27.41-29.12-41.1-9.4-13.25-18.81-26.49-28.23-39.73-6.2-8.71-12.4-17.41-18.63-26.1-.43-.6-1.07-1.07-1.69-1.5-.88-.62-1.26-1.35-1.26-2.48.04-18.53.03-37.06.03-55.59 0-12.37.04-24.74-.04-37.11-.01-1.88.82-2.84 2.33-3.51 4.53-2.03 9.07-4.04 13.6-6.07 14.86-6.66 29.72-13.33 44.58-19.99 6.63-2.97 13.25-5.96 19.88-8.93 1.22-.55 2.42-.48 3.66.08 9.25 4.17 18.52 8.33 27.78 12.48 11.53 5.17 23.06 10.33 34.59 15.49 5.19 2.32 10.37 4.65 15.56 6.95 1.79.8 2.62 2.03 2.61 4.1-.06 15.86-.06 31.71-.03 47.57.03 14.4.11 28.79.2 43.19.01 1.73-.63 3-2 4.03-.67.5-1.17 1.22-1.79 1.93m-57.37-120.83c-6.85-3.1-13.69-6.21-20.55-9.26-.48-.22-1.25-.12-1.76.1-4.91 2.16-9.79 4.38-14.68 6.57-17.48 7.84-34.97 15.66-52.45 23.5-1.5.67-2.98 1.4-4.63 2.17.33.22.46.34.61.4 9.63 4.29 19.26 8.58 28.89 12.88 14.1 6.3 28.19 12.63 42.31 18.9.52.23 1.31.24 1.83.02 9.06-4 18.11-8.06 27.15-12.1 11.6-5.19 23.2-10.37 34.79-15.56 3.23-1.45 6.44-2.92 9.97-4.52-17.28-7.77-34.28-15.41-51.47-23.1m-5.68 54.91c-3.91 1.74-7.82 3.46-11.7 5.25-.48.22-1.1.82-1.1 1.25-.05 5.57.02 11.14 0 16.71 0 .93.29 1.34 1.12 1.69 7.45 3.18 14.89 6.39 22.32 9.61 15.47 6.71 30.94 13.43 46.41 20.13 1.29.56 2.6 1.05 3.92 1.58v-83.56c-.52.26-.87.44-1.24.61-11.34 5.07-22.69 10.14-34.04 15.22-8.5 3.81-17 7.62-25.69 11.52m-92.47-6.53v62.74c.51-.15.86-.22 1.18-.35 9.36-4.04 18.72-8.08 28.08-12.13 9.26-4.01 18.51-8.02 27.77-12.03 5.2-2.25 10.41-4.49 15.62-6.74.76-.33 1.38-.64 1.37-1.72-.06-5.44-.04-10.87-.01-16.31 0-.84-.29-1.31-1.07-1.65-7.8-3.48-15.59-7-23.38-10.49-13.81-6.18-27.62-12.35-41.44-18.53-2.65-1.19-5.31-2.37-8.12-3.63zm140.45 71.9c2.96-1.32 5.93-2.64 9.21-4.11-23.14-9.98-45.92-19.8-68.74-29.64v60.45c19.91-8.93 39.62-17.78 59.53-26.7m-104.64-17.92c-10.55 4.55-21.09 9.09-31.97 13.79 23.18 10.38 45.91 20.56 68.77 30.79v-60.47c-12.29 5.32-24.45 10.57-36.8 15.89m82.86 59.76c8.87-12.5 17.73-25 26.6-37.5-.43-.12-.65-.07-.85.02l-18.15 8.13c-14.78 6.61-29.56 13.24-44.36 19.8-.93.41-1.13.88-1.13 1.82 0 20.02-.03 40.05-.05 60.07 0 .19.14.37.26.65 12.57-17.68 25.06-35.26 37.69-52.98m-62.59-16.47c-15.92-7.1-31.84-14.2-47.76-21.29-.07.07-.14.15-.21.22 21.43 30.16 42.87 60.32 64.42 90.64.14-.37.16-.41.16-.45.01-20.24.02-40.49-.01-60.73 0-.45-.45-1.12-.86-1.31-5.17-2.36-10.37-4.65-15.74-7.07ZM924.51 136.2a32597 32597 0 0 1-23.63 33.32c-6.65 9.35-13.31 18.69-19.95 28.04-7.87 11.07-15.72 22.15-23.58 33.22-3.81 5.37-7.64 10.72-11.56 16.22-1.13-1.55-2.24-3.02-3.3-4.51-9.71-13.7-19.4-27.41-29.12-41.1-9.4-13.25-18.81-26.49-28.23-39.73-6.2-8.71-12.4-17.41-18.63-26.1-.43-.6-1.07-1.07-1.69-1.5-.88-.62-1.26-1.35-1.26-2.48.04-18.53.03-37.06.03-55.59 0-12.37.04-24.74-.04-37.11-.01-1.88.82-2.84 2.33-3.51 4.53-2.03 9.07-4.04 13.6-6.07 14.86-6.66 29.72-13.33 44.58-19.99 6.63-2.97 13.25-5.96 19.88-8.93 1.22-.55 2.42-.48 3.66.08 9.25 4.17 18.52 8.33 27.78 12.48 11.53 5.17 23.06 10.33 34.59 15.49 5.19 2.32 10.37 4.65 15.56 6.95 1.79.8 2.62 2.03 2.61 4.1-.06 15.86-.06 31.71-.03 47.57.03 14.4.11 28.79.2 43.19.01 1.73-.63 3-2 4.03-.67.5-1.17 1.22-1.79 1.93M867.15 15.37c-6.85-3.1-13.69-6.21-20.55-9.26-.48-.22-1.25-.12-1.76.1-4.91 2.16-9.79 4.38-14.68 6.57-17.48 7.84-34.97 15.66-52.45 23.5-1.5.67-2.98 1.4-4.63 2.17.33.22.46.34.61.4 9.63 4.29 19.26 8.58 28.89 12.88 14.1 6.3 28.19 12.63 42.31 18.9.52.23 1.31.24 1.83.02 9.06-4 18.11-8.06 27.15-12.1 11.6-5.19 23.2-10.37 34.79-15.56 3.23-1.45 6.44-2.92 9.97-4.52-17.28-7.77-34.28-15.41-51.47-23.1m-5.68 54.91c-3.91 1.74-7.82 3.46-11.7 5.25-.48.22-1.1.82-1.1 1.25-.05 5.57.02 11.14 0 16.71 0 .93.29 1.34 1.12 1.69 7.45 3.18 14.89 6.39 22.32 9.61 15.47 6.71 30.94 13.43 46.41 20.13 1.29.56 2.6 1.05 3.92 1.58V42.94c-.52.26-.87.44-1.24.61-11.34 5.07-22.69 10.14-34.04 15.22-8.5 3.81-17 7.62-25.69 11.52m-92.47-6.53v62.74c.51-.15.86-.22 1.18-.35 9.36-4.04 18.72-8.08 28.08-12.13 9.26-4.01 18.51-8.02 27.77-12.03 5.2-2.25 10.41-4.49 15.62-6.74.76-.33 1.38-.64 1.37-1.72-.06-5.44-.04-10.87-.01-16.31 0-.84-.29-1.31-1.07-1.65-7.8-3.48-15.59-7-23.38-10.49-13.81-6.18-27.62-12.35-41.44-18.53-2.65-1.19-5.31-2.37-8.12-3.63zm140.45 71.9c2.96-1.32 5.93-2.64 9.21-4.11-23.14-9.98-45.92-19.8-68.74-29.64v60.45c19.91-8.93 39.62-17.78 59.53-26.7m-104.64-17.92c-10.55 4.55-21.09 9.09-31.97 13.79 23.18 10.38 45.91 20.56 68.77 30.79v-60.47c-12.29 5.32-24.45 10.57-36.8 15.89m82.86 59.76c8.87-12.5 17.73-25 26.6-37.5-.43-.12-.65-.07-.85.02l-18.15 8.13c-14.78 6.61-29.56 13.24-44.36 19.8-.93.41-1.13.88-1.13 1.82 0 20.02-.03 40.05-.05 60.07 0 .19.14.37.26.65 12.57-17.68 25.06-35.26 37.69-52.98m-62.59-16.47c-15.92-7.1-31.84-14.2-47.76-21.29-.07.07-.14.15-.21.22 21.43 30.16 42.87 60.32 64.42 90.64.14-.37.16-.41.16-.45.01-20.24.02-40.49-.01-60.73 0-.45-.45-1.12-.86-1.31-5.17-2.36-10.37-4.65-15.74-7.07Z" style="fill:#fff" data-name="Layer 1"/><path d="m120.73 423.35 185.51-185.51M147.27 626.41l377.11-87.66m447.93 47.75 111.92-229.14M471.9 154.53l274.45-63.45m-75.16 473.6 137.59 87.94m-369-397.05 100.85 120.75m167.22 72.06 331.79-148.7m-107.1-144.46 85.3 49.55" style="fill:#fff;stroke:#fff;stroke-linecap:round;stroke-miterlimit:10;stroke-width:8px" data-name="Ebene 2"/></svg>