<svg version="1.1" id="Layer_1" xmlns="http://www.w3.org/2000/svg" xmlns:xlink="http://www.w3.org/1999/xlink" x="0px" y="0px"
	 width="100%" viewBox="0 0 376 376" enable-background="new 0 0 376 376" xml:space="preserve">
<path fill="#FFFFFF" opacity="1.000000" stroke="none" 
	d="
M303.360352,205.252258 
	C265.270081,258.736145 227.444992,311.960175 189.217361,365.750641 
	C181.123703,354.365051 173.445023,343.569366 165.772705,332.769196 
	C136.204163,291.146240 106.980103,249.269623 76.706894,208.165695 
	C72.084335,201.889343 71.288834,196.408630 71.287453,189.755661 
	C71.279114,149.756699 71.343971,109.757484 71.188126,69.759125 
	C71.172768,65.819595 72.454636,63.652058 75.932404,62.102379 
	C112.504822,45.805855 149.024979,29.391731 185.641281,13.194810 
	C187.630417,12.314932 190.686172,12.306299 192.671631,13.186468 
	C229.432755,29.482924 266.098267,45.994900 302.813232,62.395832 
	C305.981995,63.811359 307.074371,65.859001 307.065826,69.353722 
	C306.961395,112.185623 307.061676,155.018127 306.869812,197.849411 
	C306.859100,200.235184 304.755188,202.611603 303.360352,205.252258 
M193.171967,112.014549 
	C226.398056,97.162399 259.624146,82.310257 293.522461,67.157608 
	C258.979248,51.628242 225.269608,36.427139 191.471909,21.424393 
	C189.876236,20.716076 187.286987,21.292599 185.516785,22.075962 
	C163.962067,31.614498 142.473389,41.302311 120.969292,50.955223 
	C109.225479,56.226868 97.484955,61.505817 85.291306,66.984390 
	C86.220245,67.600052 86.556435,67.896408 86.947021,68.071266 
	C120.131546,82.927490 153.305237,97.808304 186.553970,112.519539 
	C188.184860,113.241135 190.474304,112.474312 193.171967,112.014549 
M154.334610,107.130775 
	C129.419098,95.967552 104.503593,84.804337 79.458313,73.582977 
	C79.458313,113.752335 79.458313,153.234818 79.458313,192.716034 
	C80.103218,192.716034 80.472771,192.819580 80.746582,192.701355 
	C114.725716,178.030853 148.709366,163.370529 182.623337,148.550720 
	C183.842606,148.017929 185.048523,145.931946 185.105667,144.523010 
	C185.368500,138.041382 185.015717,131.533890 185.307251,125.054733 
	C185.452408,121.828575 184.213043,120.297081 181.428940,119.100060 
	C172.589630,115.299637 163.834152,111.304222 154.334610,107.130775 
M216.232864,110.699783 
	C209.558838,113.660469 202.924576,116.716362 196.189331,119.530540 
	C193.811005,120.524292 193.087128,121.871193 193.174545,124.411728 
	C193.386261,130.564270 193.491272,136.742935 193.147827,142.883591 
	C192.947464,146.466324 194.178131,148.038574 197.444687,149.435867 
	C227.807526,162.423996 258.080170,175.622864 288.386536,188.743195 
	C291.803223,190.222351 295.266510,191.593903 298.923950,193.104446 
	C298.923950,153.068344 298.923950,113.660393 298.923950,73.622078 
	C271.330475,85.969833 244.112717,98.149460 216.232864,110.699783 
M253.653915,218.233368 
	C266.703125,212.396103 279.752319,206.558853 293.528839,200.396225 
	C260.282318,186.057556 227.883469,172.084488 195.362274,158.058640 
	C195.362274,186.980637 195.362274,215.451492 195.362274,244.332245 
	C214.858307,235.629013 233.925552,227.117218 253.653915,218.233368 
M183.369858,174.503220 
	C183.369858,169.122131 183.369858,163.741028 183.369858,157.855865 
	C150.302032,172.125946 118.001289,186.065018 84.839722,200.375549 
	C118.191460,215.305084 150.449020,229.744827 183.369873,244.481491 
	C183.369873,221.031738 183.369873,198.266998 183.369858,174.503220 
M195.054153,285.500000 
	C195.054153,304.005737 195.054153,322.511475 195.054153,342.306030 
	C226.062744,298.651184 256.229095,256.182037 286.395477,213.712906 
	C286.058655,213.426315 285.721832,213.139725 285.385010,212.853134 
	C255.270920,226.306915 225.156845,239.760681 195.054153,253.209366 
	C195.054153,263.865906 195.054153,274.182953 195.054153,285.500000 
M134.809219,231.638168 
	C120.535950,225.252716 106.262672,218.867279 91.989403,212.481827 
	C91.832733,212.752350 91.676056,213.022873 91.519379,213.293396 
	C121.851990,255.968109 152.184601,298.642822 182.664566,341.524872 
	C183.096588,340.798309 183.368134,340.554840 183.368271,340.311249 
	C183.382919,312.352203 183.430008,284.392822 183.230637,256.435150 
	C183.219711,254.901855 181.480972,252.663040 179.983032,251.969391 
	C165.228073,245.136887 150.353745,238.562134 134.809219,231.638168 
z"/>

</svg>