<?xml version="1.0" encoding="UTF-8"?>
<svg id="Ebene_1" data-name="Ebene 1" xmlns="http://www.w3.org/2000/svg" viewBox="0 0 405.91 287.6">
  <defs>
    <style>
      .cls-1, .cls-2 {
        stroke-linecap: round;
      }

      .cls-1, .cls-2, .cls-3 {
        fill: none;
        stroke: #fff;
        stroke-width: 2.5px;
      }

      .cls-1, .cls-3 {
        stroke-miterlimit: 10;
      }

      .cls-2 {
        stroke-linejoin: round;
      }
    </style>
  </defs>
  <polyline class="cls-2" points="167.4 253.85 85.9 177.93 167.4 98.35"/>
  <path class="cls-3" d="m192.92,217.35h44.92c1.67,0,3.02,1.38,3.02,3.08v62.84c0,1.7-1.35,3.08-3.02,3.08h-44.92c-1.67,0-3.02-1.38-3.02-3.08v-62.84c0-1.7,1.35-3.08,3.02-3.08Z"/>
  <rect class="cls-3" x="194.9" y="224.35" width="41" height="12"/>
  <rect class="cls-3" x="194.9" y="240.35" width="8" height="8"/>
  <rect class="cls-3" x="227.9" y="240.35" width="8" height="8"/>
  <rect class="cls-3" x="205.9" y="240.35" width="8" height="8"/>
  <rect class="cls-3" x="216.9" y="240.35" width="8" height="8"/>
  <rect class="cls-3" x="194.9" y="251.35" width="8" height="8"/>
  <rect class="cls-3" x="227.9" y="251.35" width="8" height="8"/>
  <rect class="cls-3" x="205.9" y="251.35" width="8" height="8"/>
  <rect class="cls-3" x="216.9" y="251.35" width="8" height="8"/>
  <rect class="cls-3" x="216.9" y="273.35" width="8" height="8"/>
  <rect class="cls-3" x="194.9" y="262.35" width="8" height="8"/>
  <rect class="cls-3" x="227.9" y="262.35" width="8" height="19"/>
  <rect class="cls-3" x="205.9" y="262.35" width="8" height="8"/>
  <rect class="cls-3" x="216.9" y="262.35" width="8" height="8"/>
  <rect class="cls-3" x="194.9" y="273.35" width="8" height="8"/>
  <rect class="cls-3" x="205.9" y="273.35" width="8" height="8"/>
  <polyline class="cls-2" points="336.51 176.2 255.01 100.28 336.51 20.7"/>
  <rect class="cls-1" x="343.54" y="1.25" width="61.12" height="36.01"/>
  <polyline class="cls-1" points="343.54 1.25 374.1 24.9 404.66 1.25"/>
  <line class="cls-1" x1="343.53" y1="37.16" x2="366.61" y2="19.26"/>
  <line class="cls-1" x1="381.55" y1="19.36" x2="404.63" y2="37.26"/>
  <rect class="cls-1" x="184.07" y="73.19" width="58.84" height="58.84" rx="6.11" ry="6.11"/>
  <rect class="cls-1" x="220.42" y="87.01" width="13.2" height="14.05" rx="3.09" ry="3.09"/>
  <rect class="cls-1" x="195.65" y="87.01" width="13.2" height="14.05" rx="3.09" ry="3.09"/>
  <rect class="cls-1" x="177.88" y="85.57" width="6.19" height="15.48" rx="1.37" ry="1.37"/>
  <rect class="cls-1" x="242.91" y="85.57" width="6.19" height="15.48" rx="1.37" ry="1.37"/>
  <rect class="cls-1" x="195.68" y="112.67" width="37.16" height="10.07" rx="1.33" ry="1.33"/>
  <rect class="cls-1" x="203.12" y="112.67" width="22.3" height="10.07"/>
  <rect class="cls-3" x="210.55" y="112.67" width="7.43" height="10.07"/>
  <line class="cls-1" x1="180.97" y1="85.57" x2="180.97" y2="63.9"/>
  <line class="cls-1" x1="246.01" y1="85.57" x2="246.01" y2="65.44"/>
  <rect class="cls-1" x="345.71" y="151.54" width="58.84" height="58.84" rx="6.11" ry="6.11"/>
  <rect class="cls-1" x="7.44" y="142.08" width="58.84" height="58.84" rx="6.11" ry="6.11"/>
  <rect class="cls-1" x="43.8" y="155.91" width="13.2" height="14.05" rx="3.09" ry="3.09"/>
  <rect class="cls-1" x="19.02" y="155.91" width="13.2" height="14.05" rx="3.09" ry="3.09"/>
  <rect class="cls-1" x="1.25" y="154.47" width="6.19" height="15.48" rx="1.37" ry="1.37"/>
  <rect class="cls-1" x="66.29" y="154.47" width="6.19" height="15.48" rx="1.37" ry="1.37"/>
  <rect class="cls-1" x="19.06" y="181.57" width="37.16" height="10.07" rx="1.33" ry="1.33"/>
  <rect class="cls-1" x="26.49" y="181.57" width="22.3" height="10.07"/>
  <rect class="cls-3" x="33.92" y="181.57" width="7.43" height="10.07"/>
  <line class="cls-1" x1="4.35" y1="154.47" x2="4.35" y2="132.79"/>
  <line class="cls-1" x1="69.38" y1="154.47" x2="69.38" y2="134.34"/>
  <polyline class="cls-1" points="345.71 194.2 360.25 179.23 375.14 193.1 396.25 169.23 404.56 178.18"/>
  <circle class="cls-1" cx="358.25" cy="165.23" r="7"/>
</svg>